<svg width="360" height="361" viewBox="0 0 360 361" fill="none" xmlns="http://www.w3.org/2000/svg">
<rect y="0.5" width="360" height="360" rx="180" fill="black"/>
<path fill-rule="evenodd" clip-rule="evenodd" d="M140.494 107.306C126.837 109.208 112.144 112.796 108.036 115.235C105.966 116.463 103.156 119.31 101.788 121.561C98.0145 127.775 93.9358 150.071 90.4271 183.658L89.6263 191.314L76.0223 192.263C56.5245 193.623 44.7009 196.582 40.1244 201.25C28.8667 212.732 44.5447 227.628 80.8884 239.98C138.588 259.59 220.78 259.483 281.298 239.72C313.788 229.11 328.442 216.173 321.961 203.821C318.678 197.565 304.891 193.611 281.149 192.115L267.652 191.264L266.793 178.867C265.746 163.726 262.613 143.364 259.674 132.595C255.981 119.062 249.905 114.886 225.243 108.937C215.667 106.627 153.908 105.439 140.494 107.306ZM102.123 213.132C101.203 212.365 100.454 208.761 100.454 205.101C100.454 197.832 100.609 197.738 109.129 199.847C142.54 208.115 206.908 208.725 243.077 201.117C249.948 199.671 256.104 198.824 256.757 199.235C258.651 200.429 258.14 211.574 256.111 213.29C253.4 215.584 232.637 219.835 216.002 221.502C197.38 223.369 160.793 223.38 142.971 221.524C127.363 219.9 104.638 215.231 102.123 213.132Z" fill="white"/>
</svg>
