<svg width="1371" height="500" viewBox="0 0 1371 500" fill="none" xmlns="http://www.w3.org/2000/svg">
<rect width="1370.1" height="500" fill="white"/>
<path fill-rule="evenodd" clip-rule="evenodd" d="M388.976 172.58V252.211H402.989H417.003V172.58V92.9478H402.989H388.976V172.58ZM304.554 136.538C284.932 141.589 269.19 158.849 264.691 180.247C262.605 190.169 263.909 209.016 267.303 218.015C275.165 238.852 292.201 251.407 315.04 253.193C334.968 254.753 355.74 246.13 364.952 232.474L368.913 226.603L358.674 220.449L348.436 214.294L343.323 220.219C336.505 228.118 328.95 231.025 317.652 230.101C303.913 228.977 293.941 220.453 291.986 208.162L291.197 203.207H330.601C365.302 203.207 370.101 202.95 370.815 201.054C373.225 194.648 369.938 172.328 365.188 162.855C360.568 153.639 351.997 145.041 342.854 140.451C335.411 136.714 332.568 136.067 321.903 135.688C315.116 135.447 307.31 135.829 304.554 136.538ZM471.755 137.241C456.594 141.578 445.271 151.724 437.91 167.57C433.842 176.328 433.686 177.315 433.686 194.359C433.686 211.403 433.842 212.39 437.91 221.148C445.439 237.356 456.817 246.982 473.772 251.486C488.627 255.432 505.154 253.328 518.8 245.752C525.371 242.104 537.158 230.154 537.078 227.222C537.054 226.367 532.458 223.002 526.864 219.743C517.379 214.218 516.602 213.99 515.342 216.34C506.819 232.25 480.073 235.332 467.864 221.81C466.107 219.866 463.597 215.038 462.283 211.081L459.894 203.888L499.843 203.527L539.79 203.168L539.774 192.637C539.737 167.706 528.853 148.649 509.487 139.607C500.022 135.188 482.728 134.103 471.755 137.241ZM696.939 136.624C694.183 137.286 688.875 139.406 685.143 141.334C648.576 160.235 646.315 223.586 681.442 245.008C703.236 258.296 733.824 255.571 751.107 238.799C756.92 233.157 761.089 226.035 758.993 225.323C758.242 225.067 753.538 222.343 748.542 219.27C741.712 215.069 739.305 214.154 738.848 215.59C737.472 219.911 728.323 227.509 722.603 229.08C704.114 234.157 687.874 225.013 684.46 207.603L683.598 203.207H723.8H764.002L763.399 190.417C762.28 166.669 752.929 149.637 736.044 140.591C726.831 135.655 708.644 133.81 696.939 136.624ZM827.677 137.027C821.184 139.494 812.143 145.586 811.182 148.141C809.63 152.265 808.408 149.877 809.058 143.994L809.735 137.868H795.548H781.36V195.04V252.211H795.374H809.388L809.409 213.757C809.431 176.489 809.524 175.136 812.414 169.933C816.611 162.374 822.851 159.015 832.736 158.988C842.259 158.963 847.714 162.198 851.599 170.17C853.83 174.752 854.143 179.423 854.508 213.757L854.918 252.211H868.256H881.596L881.193 208.312C880.803 165.773 880.695 164.196 877.7 157.445C871.586 143.668 859.947 136.383 842.754 135.573C836.328 135.271 830.93 135.791 827.677 137.027ZM542.459 138.787C542.459 139.292 552.144 164.253 563.979 194.257C575.816 224.26 585.798 249.595 586.162 250.558C586.652 251.852 590.15 252.206 599.632 251.919L612.44 251.531L634.165 195.04C646.114 163.97 655.893 138.375 655.897 138.162C655.901 137.95 649.507 137.95 641.69 138.162L627.476 138.549L613.676 175.983C606.087 196.571 599.72 213.878 599.529 214.441C599.337 215.004 595.034 204.284 589.966 190.62C584.897 176.955 578.379 159.494 575.48 151.821L570.209 137.868H556.334C548.703 137.868 542.459 138.282 542.459 138.787ZM308.437 158.83C305.615 159.901 301.782 162.207 299.919 163.956C296.572 167.099 291.632 176.433 291.576 179.726C291.553 181.03 297.626 181.428 317.572 181.428C346.91 181.428 345.867 181.893 341.004 170.968C336.074 159.893 320.718 154.169 308.437 158.83ZM477.912 158.92C469.313 162.046 463.989 168.293 461.58 178.084L460.757 181.428H487.017H513.278L512.361 178.365C508.952 166.982 503.544 160.85 494.705 158.347C488.194 156.502 484.184 156.64 477.912 158.92ZM700.822 158.833C692.447 162.006 686.922 168.49 684.76 177.684L683.881 181.428H710.037H736.195L735.278 177.004C733.815 169.95 729.459 163.865 723.745 160.892C716.741 157.247 707.257 156.396 700.822 158.833Z" fill="black"/>
<path d="M907.596 250.998V171.999V93L921.04 93.388L934.484 93.7759L934.564 121.422L934.643 149.069L938.137 145.734C955.268 129.379 989.016 133.213 1001.84 152.974C1008.02 162.502 1008.99 170.527 1009.01 212.543L1009.03 250.998H995.015H981.002V213.52C981.002 172.396 980.62 169.953 973.207 163.591C962.454 154.363 944.011 158.403 937.626 171.384C935.151 176.413 934.956 179.528 934.956 213.902V250.994L921.276 250.995L907.596 250.998Z" fill="black"/>
<path d="M1155.84 136.655V121V105.346H1169.85H1183.87V121V136.655H1199.22H1214.56V148.906V161.157H1199.22H1183.87V189.679C1183.87 207.682 1184.41 219.424 1185.35 221.518C1187.47 226.271 1191.96 227.857 1203.28 227.857H1213.23V239.402C1213.23 250.672 1213.15 250.967 1209.79 251.827C1207.9 252.31 1200.24 252.429 1192.77 252.088C1176.45 251.346 1168 247.818 1162.19 239.331C1156.95 231.679 1155.84 223.083 1155.84 190.238V161.157H1145.83H1135.82V148.906V136.655H1145.83H1155.84Z" fill="black"/>
<path d="M1231.35 173.996C1229.31 157.238 1240.04 141.859 1257.01 137.198C1275.86 132.022 1298.66 137.652 1309.8 150.234C1314.65 155.704 1318.33 162.044 1317.21 163.003C1316.91 163.264 1312.06 164.73 1306.44 166.263L1296.22 169.051L1292.43 164.982C1286.21 158.309 1281.97 156.727 1271.85 157.31C1260.63 157.956 1256.94 160.675 1257.54 167.85C1258.09 174.386 1263.36 177.758 1278.92 181.528C1285.73 183.176 1294.6 185.83 1298.63 187.424C1328.81 199.365 1326.68 239.657 1295.34 249.529C1274.81 255.996 1249.02 251.478 1236.68 239.25C1232.17 234.786 1226.58 225.522 1226.58 222.525C1226.58 221.779 1231.39 219.619 1237.27 217.724L1247.97 214.277L1252.95 219.918C1259.44 227.255 1266.61 230.511 1276.36 230.549C1288.85 230.597 1294.39 226.051 1293.09 216.812C1292.43 212.185 1285.36 208.027 1273.62 205.375C1243.61 198.592 1233.42 191.026 1231.35 173.996Z" fill="black"/>
<path fill-rule="evenodd" clip-rule="evenodd" d="M1063.08 137.089C1053.51 139.593 1042.82 145.923 1038.28 151.777C1034.67 156.421 1029.73 167.748 1030.82 168.863C1032.17 170.233 1053.64 173.725 1054 172.632C1055.4 168.407 1060.33 162.112 1064.07 159.789C1069.78 156.235 1083.77 156.059 1090.44 159.458C1095.89 162.232 1099.78 169.223 1099.78 176.236L1099.78 181.107L1079.43 182.559C1054.6 184.332 1046.21 187.075 1037.1 196.403C1030.5 203.167 1027.71 210.07 1027.71 219.69C1027.71 234.068 1034.88 244.343 1048.58 249.611C1060.07 254.028 1076.23 253.142 1086.3 247.543C1090.27 245.341 1095.07 241.533 1096.98 239.082L1100.45 234.625L1101.12 242.471L1101.79 250.317L1114.47 250.705L1127.14 251.092L1126.82 233.009C1126.64 223.063 1126.33 203.899 1126.13 190.423C1125.81 167.989 1125.51 165.313 1122.6 158.715C1116.32 144.463 1102.64 136.813 1081.77 135.879C1074.57 135.556 1067.08 136.042 1063.08 137.089ZM1054.41 217.561C1054.41 210.711 1057.52 206.222 1063.91 203.864C1066.42 202.938 1075.37 202.154 1084.1 202.097L1099.78 201.994V207.467C1099.78 215.453 1094.47 222.895 1085.61 227.318C1079.54 230.345 1077.1 230.811 1069.8 230.336C1058.64 229.612 1054.41 226.098 1054.41 217.561Z" fill="black"/>
<path d="M116.324 129.243C133.913 129.849 152.916 127.703 161.684 124.119C165.731 122.465 166.265 122.584 166.52 125.194C166.72 127.241 166.736 127.248 171.817 127.695C179.796 128.397 188.127 130.113 190.4 131.523C194.242 133.906 192.695 138.487 186.874 141.967C179.908 146.13 165.65 150.029 148.137 152.558C135.335 154.407 111.654 154.529 98.1135 152.816C74.762 149.862 54.7096 143.422 51.0318 137.697C49.2585 134.937 50.063 132.678 53.4157 131.006C56.3975 129.518 67.9607 127.427 73.2006 127.427C75.7917 127.427 75.9301 127.324 75.9301 125.401C75.9301 122.95 76.2334 122.923 83.5228 124.72C94.5277 127.433 104.761 128.844 116.324 129.243Z" fill="black"/>
<path d="M75.9301 158.408C75.9301 157.773 76.1109 156.773 76.3321 156.186C76.834 154.851 76.2493 154.811 84.8743 156.773C98.5949 159.895 106.49 160.765 121.29 160.785C136.509 160.805 150.502 159.431 158.828 157.098C167.443 154.684 166.65 154.66 166.65 157.334V159.708L171.451 160.154C179.667 160.917 188.049 162.547 190.141 163.787C192.913 165.432 193.159 168.368 190.766 171.268C186.617 176.297 171.967 181.762 155.393 184.463C125.887 189.271 90.2818 187.232 67.6826 179.441C56.2995 175.517 50.1048 171.297 50.1048 167.468C50.1048 163.548 52.9793 162.359 66.4118 160.722C74.5038 159.736 75.9301 159.388 75.9301 158.408Z" fill="black"/>
<path d="M83.5764 190.187C108.464 195.648 145.814 195.219 161.694 189.291C165.806 187.756 166.65 187.908 166.65 190.183C166.65 192.127 166.716 192.162 171.12 192.577C179.106 193.329 187.22 194.874 189.709 196.115C196.038 199.27 191.318 205.79 179.128 210.73C149.574 222.709 96.9308 222.911 65.1828 211.168C58.9053 208.846 51.9456 204.64 50.8146 202.484C49.4724 199.927 49.9611 197.736 52.1801 196.359C54.4567 194.947 62.7863 193.233 70.7982 192.529C75.6262 192.104 75.9301 191.982 75.9301 190.482C75.9301 188.555 76.1063 188.548 83.5764 190.187Z" fill="black"/>
<path d="M85.5319 223.331C108.525 228.622 148.551 227.461 163.332 221.073C166.107 219.874 166.65 220.121 166.65 222.585V224.461L174.1 225.278C182.331 226.182 188.706 227.638 190.986 229.137C195.054 231.809 191.14 237.567 182.385 241.79C166.038 249.675 143.482 253.498 117.317 252.818C91.1314 252.136 67.4137 246.965 55.8863 239.422C50.1889 235.695 48.3519 231.285 51.5947 229.121C53.9302 227.563 60.325 226.097 68.462 225.256C75.7659 224.5 75.9301 224.446 75.9301 222.81C75.9301 221.334 76.146 221.184 77.7512 221.547C78.7524 221.774 82.254 222.576 85.5319 223.331Z" fill="black"/>
<path d="M83.3175 255.39C105.407 261.346 143.824 260.913 162.015 254.504C166.136 253.052 166.65 253.151 166.65 255.402C166.65 256.852 167.007 257.041 170.458 257.412C189.674 259.478 194.697 261.781 191.732 267.168C187.581 274.713 167.192 281.966 142.149 284.806C128.038 286.407 104.462 285.656 88.8428 283.108C67.2376 279.584 50.1048 271.507 50.1048 264.847C50.1048 262.874 50.4471 262.454 53.1336 261.128C55.9539 259.736 63.1049 258.33 72.1225 257.397C75.262 257.072 75.9301 256.781 75.9301 255.74C75.9301 255.046 76.2003 254.308 76.5301 254.1C76.8605 253.892 79.9145 254.472 83.3175 255.39Z" fill="black"/>
<path d="M142.811 290.946C150.066 289.963 160.02 287.727 162.968 286.421C165.581 285.262 166.272 285.506 166.525 287.678C166.707 289.236 167.103 289.496 169.836 289.854C187.669 292.191 191.994 293.663 192.356 297.513C192.532 299.391 192.142 300.181 190.016 302.241C182.557 309.471 164.905 315.116 141.949 317.612C124.816 319.476 99.8603 318.284 82.9003 314.79C70.5558 312.247 57.265 306.714 52.5065 302.137C49.4942 299.239 49.2128 296.224 51.794 294.499C54.2302 292.871 61.2885 291.013 66.835 290.54C74.9415 289.848 75.9301 289.592 75.9301 288.177C75.9301 287.472 76.154 286.761 76.4268 286.596C76.6996 286.431 79.6318 286.998 82.9414 287.854C93.9072 290.693 103.516 291.685 120.628 291.744C129.995 291.776 139.104 291.449 142.811 290.946Z" fill="black"/>
<path d="M72.7847 322.241C75.5732 321.898 75.9301 321.667 75.9301 320.207C75.9301 318.186 75.7931 318.186 83.2361 320.218C94.931 323.41 102.69 324.236 121.29 324.27C140.112 324.303 148.713 323.49 158.042 320.793C167.243 318.133 166.65 318.182 166.65 320.09C166.65 321.946 167.952 322.57 171.948 322.626C174.607 322.664 182.853 324.107 187.047 325.27C192.839 326.875 193.987 330.357 190.152 334.686C184.492 341.076 168.082 347.035 147.778 350.074C137.784 351.57 108.968 351.774 98.4446 350.423C71.5604 346.973 49.4969 337.537 50.2332 329.805C50.4014 328.039 50.9431 327.42 53.4157 326.167C56.0466 324.834 62.7287 323.479 72.7847 322.241Z" fill="black"/>
<path d="M68.315 355.53C75.0402 354.731 75.6156 354.549 75.8109 353.158C76.0659 351.343 75.9129 351.347 81.1018 353.006C87.3887 355.016 99.0975 356.907 108.377 357.409C112.93 357.656 117.996 357.96 119.635 358.084C128.754 358.775 153.151 355.794 160.96 353.035C165.961 351.268 166.65 351.296 166.65 353.263C166.65 354.755 166.976 354.906 171.12 355.324C179.228 356.142 186.877 357.8 189.531 359.314C191.713 360.558 192.177 361.201 192.344 363.21C192.511 365.237 192.15 366.005 190.041 368.094C186.57 371.532 178.246 375.509 168.553 378.359C133.568 388.645 85.0333 386.018 59.2171 372.44C53.0336 369.188 50.1048 366.086 50.1048 362.791C50.1048 360.937 50.4743 360.273 51.9344 359.502C55.1738 357.794 60.8521 356.417 68.315 355.53Z" fill="black"/>
<path d="M144.888 389.176C152.31 388.159 162.723 385.841 164.548 384.799C165.91 384.021 166.65 384.471 166.65 386.078C166.65 387.403 167.473 387.623 175.59 388.469C181.371 389.071 189.478 391.407 191.085 392.933C194.882 396.541 190.997 401.941 181.057 406.873C172.438 411.148 162.597 413.84 146.657 416.281C136.14 417.891 107.37 417.878 95.87 416.257C79.9019 414.005 69.691 411.069 59.9091 405.916C53.0873 402.323 50.1048 399.271 50.1048 395.882C50.1048 393.125 51.3695 392.106 56.7267 390.545C59.8416 389.636 72.5821 387.498 75.1024 387.46C75.558 387.453 75.9301 386.84 75.9301 386.097C75.9301 384.434 76.1526 384.433 82.4414 386.057C100.845 390.811 124.375 391.985 144.888 389.176Z" fill="black"/>
<path d="M120.628 423.537C139.838 423.535 152.816 421.985 162.346 418.552C165.989 417.24 166.65 417.329 166.65 419.131C166.65 420.157 167.442 420.404 171.862 420.752C181.733 421.528 191.097 424.417 192.063 426.984C193.038 429.578 192.432 431.599 189.957 434.001C183.666 440.103 168.307 445.675 149.433 448.7C138.677 450.424 104.94 450.436 93.8092 448.72C73.3085 445.56 55.1884 438.633 51.2073 432.436C49.6108 429.951 50.0028 426.738 52.0913 425.186C54.3991 423.471 60.4422 421.973 68.8116 421.041C74.909 420.362 75.9301 420.076 75.9301 419.044C75.9301 418.382 76.0116 417.84 76.1109 417.84C76.2102 417.84 79.1159 418.566 82.5673 419.452C94.8535 422.609 103.51 423.538 120.628 423.537Z" fill="black"/>
<path fill-rule="evenodd" clip-rule="evenodd" d="M101.756 50.4571C94.98 51.4006 87.69 53.1809 85.6517 54.3912C84.6247 55.0004 83.2301 56.4126 82.5514 57.5297C80.6794 60.6128 78.6557 71.6748 76.9148 88.3391L76.5175 92.1381L69.7678 92.6089C60.0939 93.2836 54.2275 94.7519 51.9569 97.0677C46.3713 102.765 54.1501 110.155 72.1821 116.284C100.81 126.013 141.59 125.96 171.616 116.155C187.736 110.891 195.007 104.472 191.791 98.3435C190.162 95.2395 183.322 93.2775 171.542 92.5353L164.846 92.1132L164.42 85.9625C163.9 78.4502 162.346 68.3472 160.888 63.0043C159.055 56.2897 156.04 54.2176 143.805 51.2662C139.053 50.1201 108.411 49.5305 101.756 50.4571ZM82.7176 102.963C82.2613 102.582 81.8898 100.794 81.8898 98.9784C81.8898 95.3719 81.9667 95.3253 86.1941 96.3714C102.771 100.474 134.707 100.776 152.653 97.0015C156.062 96.2843 159.116 95.8642 159.44 96.0682C160.38 96.6605 160.126 102.19 159.12 103.041C157.775 104.18 147.473 106.289 139.22 107.116C129.98 108.042 111.827 108.047 102.985 107.127C95.2409 106.321 83.9658 104.005 82.7176 102.963Z" fill="black"/>
<path d="M273.596 359.13V330.245V301.36L292.579 301.287L311.562 301.216V306.344V311.473H297.69H283.818V319.664V327.855H294.769H305.721V332.323V336.791H294.769H283.818V347.96V359.13H278.707H273.596Z" fill="black"/>
<path d="M336.385 359.13V330.338V301.544H341.496H346.607V330.338V359.13H341.496H336.385Z" fill="black"/>
<path d="M374.351 359.13V330.09V301.049L379.636 301.421C384.665 301.774 385.566 302.753 398.254 321.654L411.586 341.513L411.992 321.281L412.398 301.048H417.468H422.537V330.178V359.31L417.103 358.847C411.935 358.408 411.013 357.435 398.485 339.181L385.302 319.978L384.895 339.553L384.487 359.13H379.419H374.351Z" fill="black"/>
<path d="M445.423 306.632C445.562 303.971 445.727 301.625 445.788 301.42C445.85 301.214 455.757 301.048 467.804 301.048H489.707V306.26V311.473H480.946H472.184V335.301V359.13H467.004H461.824L462.258 335.3L462.693 311.468L453.932 311.471L445.171 311.473L445.423 306.632Z" fill="black"/>
<path d="M511.61 359.13V330.329V301.526L529.863 301.46L548.115 301.395V306.433V311.473H534.973H521.831V318.919V326.366H533.513H545.195V330.834V335.301H533.513H521.831V342.748V350.194H536.434H551.036V354.662V359.13H531.323H511.61Z" fill="black"/>
<path d="M586.447 356.414C565.268 345.152 567.481 311.392 589.931 303.229C599.98 299.576 612.988 301.585 619.762 307.839C623.339 311.141 623.277 311.637 618.865 314.912C615.34 317.53 615.126 317.518 611.412 314.539C606.159 310.324 595.179 310.347 589.899 314.582C574.215 327.165 582.978 351.468 602.577 349.745C607.474 349.314 610.768 348.001 613.528 345.377C617.354 341.74 617.598 341.702 621.448 344.151C625.179 346.522 625.284 346.876 623.177 349.944C616.681 359.403 598.193 362.66 586.447 356.414Z" fill="black"/>
<path d="M649.933 330.461C650.115 314.694 650.279 301.767 650.298 301.737C650.315 301.706 652.301 301.529 654.71 301.341L659.091 301V313.683V326.366H672.233H685.375V313.948V301.53L690.485 301.334L695.596 301.138V330.134V359.13H690.485H685.375V347.216V335.301H672.233H659.091V347.216V359.13H654.345H649.6L649.933 330.461Z" fill="black"/>
</svg>
