<svg width="787" height="119" viewBox="0 0 787 119" fill="none" xmlns="http://www.w3.org/2000/svg">
<path fill-rule="evenodd" clip-rule="evenodd" d="M93.8746 58.5V117H104.375H114.875V58.5V0H104.375H93.8746V58.5ZM30.6206 32.023C15.9186 35.733 4.12357 48.413 0.752573 64.133C-0.810427 71.422 0.166573 85.267 2.70957 91.878C8.60057 107.186 21.3646 116.409 38.4776 117.721C53.4086 118.867 68.9726 112.532 75.8746 102.5L78.8426 98.187L71.1706 93.666L63.4996 89.145L59.6686 93.497C54.5606 99.3 48.8996 101.436 40.4346 100.757C30.1406 99.931 22.6686 93.669 21.2036 84.64L20.6126 81H50.1366C76.1366 81 79.7326 80.811 80.2676 79.418C82.0736 74.712 79.6106 58.315 76.0516 51.356C72.5896 44.586 66.1676 38.269 59.3176 34.897C53.7406 32.152 51.6106 31.677 43.6196 31.398C38.5346 31.221 32.6856 31.502 30.6206 32.023ZM155.899 32.539C144.539 35.725 136.055 43.179 130.54 54.82C127.492 61.254 127.375 61.979 127.375 74.5C127.375 87.021 127.492 87.746 130.54 94.18C136.181 106.087 144.706 113.158 157.41 116.467C168.54 119.366 180.923 117.82 191.148 112.255C196.071 109.575 204.903 100.796 204.843 98.642C204.825 98.014 201.381 95.542 197.19 93.148C190.083 89.089 189.501 88.921 188.557 90.648C182.171 102.336 162.131 104.6 152.983 94.666C151.667 93.238 149.786 89.691 148.802 86.784L147.012 81.5L176.944 81.235L206.875 80.971L206.863 73.235C206.835 54.92 198.68 40.92 184.17 34.277C177.078 31.031 164.12 30.234 155.899 32.539ZM324.621 32.086C322.556 32.572 318.579 34.13 315.783 35.546C288.384 49.431 286.69 95.971 313.01 111.708C329.339 121.47 352.258 119.468 365.207 107.147C369.563 103.002 372.686 97.77 371.116 97.247C370.553 97.059 367.029 95.058 363.285 92.8C358.168 89.714 356.364 89.042 356.022 90.097C354.991 93.271 348.136 98.853 343.85 100.007C329.997 103.737 317.829 97.019 315.271 84.229L314.625 81H344.747H374.869L374.417 71.604C373.579 54.158 366.572 41.646 353.921 35C347.018 31.374 333.391 30.019 324.621 32.086ZM422.578 32.382C417.713 34.194 410.939 38.67 410.219 40.547C409.056 43.576 408.141 41.822 408.628 37.5L409.135 33H398.505H387.875V75V117H398.375H408.875L408.891 88.75C408.907 61.372 408.977 60.378 411.142 56.556C414.287 51.003 418.962 48.535 426.369 48.515C433.504 48.497 437.591 50.873 440.502 56.73C442.174 60.096 442.408 63.527 442.682 88.75L442.989 117H452.983H462.978L462.676 84.75C462.384 53.5 462.303 52.341 460.059 47.382C455.478 37.261 446.757 31.909 433.875 31.314C429.06 31.092 425.016 31.474 422.578 32.382ZM208.875 33.675C208.875 34.046 216.131 52.383 224.999 74.425C233.868 96.466 241.347 115.078 241.62 115.785C241.987 116.736 244.608 116.996 251.712 116.785L261.309 116.5L277.587 75C286.54 52.175 293.867 33.372 293.87 33.216C293.873 33.06 289.082 33.06 283.225 33.216L272.575 33.5L262.235 61C256.549 76.125 251.778 88.839 251.635 89.253C251.491 89.666 248.267 81.791 244.47 71.753C240.672 61.714 235.788 48.887 233.616 43.25L229.667 33H219.271C213.553 33 208.875 33.304 208.875 33.675ZM33.5296 48.399C31.4156 49.186 28.5436 50.88 27.1476 52.165C24.6396 54.474 20.9386 61.331 20.8966 63.75C20.8796 64.708 25.4296 65 40.3746 65C62.3566 65 61.5746 65.342 57.9316 57.316C54.2376 49.18 42.7316 44.975 33.5296 48.399ZM160.512 48.465C154.069 50.762 150.08 55.351 148.275 62.544L147.658 65H167.334H187.01L186.323 62.75C183.769 54.388 179.717 49.883 173.094 48.044C168.216 46.689 165.211 46.79 160.512 48.465ZM327.53 48.401C321.255 50.732 317.116 55.496 315.496 62.25L314.837 65H334.435H354.034L353.347 61.75C352.251 56.568 348.987 52.098 344.706 49.914C339.458 47.236 332.352 46.611 327.53 48.401Z" fill="black"/>
<path d="M477.262 117.07V59.035V1L487.335 1.285L497.408 1.57001L497.468 21.88L497.527 42.19L500.145 39.74C512.981 27.725 538.267 30.542 547.873 45.059C552.505 52.058 553.229 57.954 553.246 88.82L553.262 117.07H542.762H532.262V89.538C532.262 59.327 531.976 57.532 526.422 52.858C518.365 46.079 504.546 49.047 499.762 58.583C497.908 62.278 497.762 64.566 497.762 89.818V117.067L487.512 117.068L477.262 117.07Z" fill="black"/>
<path d="M663.262 33.07V21.57V10.07H673.762H684.262V21.57V33.07H695.762H707.262V42.07V51.07H695.762H684.262V72.023C684.262 85.249 684.671 93.875 685.372 95.413C686.964 98.905 690.324 100.07 698.809 100.07H706.262V108.551C706.262 116.831 706.201 117.047 703.685 117.679C702.268 118.034 696.531 118.121 690.935 117.871C678.708 117.326 672.371 114.734 668.019 108.499C664.095 102.878 663.262 96.563 663.262 72.434V51.07H655.762H648.262V42.07V33.07H655.762H663.262Z" fill="black"/>
<path d="M719.839 60.502C718.312 48.191 726.347 36.893 739.065 33.469C753.188 29.667 770.271 33.803 778.621 43.046C782.251 47.064 785.009 51.722 784.174 52.426C783.948 52.618 780.315 53.695 776.103 54.821L768.443 56.869L765.603 53.88C760.943 48.978 757.764 47.816 750.183 48.244C741.781 48.719 739.016 50.716 739.463 55.987C739.871 60.789 743.82 63.266 755.483 66.035C760.587 67.246 767.232 69.196 770.252 70.367C792.864 79.139 791.263 108.739 767.784 115.991C752.401 120.742 733.081 117.423 723.831 108.44C720.454 105.16 716.262 98.355 716.262 96.153C716.262 95.605 719.868 94.018 724.275 92.626L732.289 90.094L736.025 94.238C740.885 99.628 746.256 102.02 753.562 102.048C762.921 102.083 767.07 98.743 766.095 91.956C765.607 88.557 760.304 85.502 751.514 83.554C729.028 78.571 721.39 73.013 719.839 60.502Z" fill="black"/>
<path fill-rule="evenodd" clip-rule="evenodd" d="M593.762 33.389C586.591 35.229 578.581 39.879 575.176 44.179C572.473 47.591 568.771 55.912 569.59 56.731C570.597 57.738 586.685 60.303 586.956 59.5C588.004 56.396 591.702 51.772 594.503 50.065C598.784 47.454 609.265 47.325 614.262 49.822C618.342 51.86 621.258 56.996 621.26 62.148L621.262 65.726L606.012 66.793C587.403 68.095 581.117 70.11 574.293 76.963C569.346 81.932 567.262 87.003 567.262 94.07C567.262 104.633 572.631 112.181 582.897 116.051C591.505 119.296 603.611 118.645 611.161 114.532C614.13 112.914 617.73 110.117 619.161 108.316L621.762 105.042L622.262 110.806L622.762 116.57L632.262 116.855L641.762 117.139L641.518 103.855C641.384 96.548 641.153 82.47 641.005 72.57C640.759 56.089 640.536 54.123 638.357 49.276C633.652 38.806 623.402 33.186 607.762 32.5C602.368 32.263 596.758 32.62 593.762 33.389ZM587.262 92.506C587.262 87.474 589.597 84.176 594.385 82.444C596.265 81.764 602.971 81.188 609.512 81.146L621.262 81.07V85.091C621.262 90.958 617.279 96.425 610.639 99.674C606.094 101.898 604.267 102.24 598.796 101.891C590.434 101.359 587.262 98.778 587.262 92.506Z" fill="black"/>
</svg>
