<svg width="1024" height="1024" viewBox="0 0 1024 1024" fill="none" xmlns="http://www.w3.org/2000/svg">
<path fill-rule="evenodd" clip-rule="evenodd" d="M521.379 404.48V484.111H535.393H549.407V404.48V324.848H535.393H521.379V404.48ZM436.958 368.438C417.336 373.488 401.594 390.749 397.095 412.147C395.009 422.069 396.313 440.916 399.707 449.915C407.569 470.752 424.604 483.307 447.444 485.093C467.372 486.653 488.144 478.029 497.356 464.374L501.317 458.503L491.078 452.348L480.84 446.194L475.727 452.118C468.909 460.018 461.354 462.925 450.056 462.001C436.317 460.877 426.345 452.353 424.39 440.062L423.601 435.107H463.005C497.705 435.107 502.505 434.85 503.219 432.954C505.629 426.548 502.342 404.228 497.592 394.755C492.971 385.539 484.4 376.941 475.258 372.35C467.815 368.614 464.972 367.967 454.307 367.588C447.52 367.347 439.714 367.729 436.958 368.438ZM604.159 369.141C588.998 373.478 577.675 383.624 570.314 399.47C566.246 408.228 566.09 409.215 566.09 426.259C566.09 443.303 566.246 444.29 570.314 453.048C577.843 469.256 589.221 478.882 606.176 483.386C621.03 487.332 637.557 485.228 651.204 477.652C657.775 474.004 669.562 462.054 669.482 459.122C669.458 458.267 664.861 454.902 659.268 451.643C649.783 446.118 649.006 445.889 647.746 448.24C639.223 464.15 612.477 467.232 600.267 453.71C598.511 451.766 596.001 446.938 594.687 442.981L592.298 435.788L632.247 435.427L672.194 435.068L672.178 424.537C672.141 399.606 661.257 380.549 641.891 371.506C632.426 367.088 615.131 366.003 604.159 369.141ZM829.343 368.524C826.587 369.186 821.279 371.306 817.547 373.234C780.979 392.135 778.718 455.486 813.846 476.908C835.64 490.196 866.228 487.471 883.511 470.699C889.324 465.057 893.492 457.935 891.397 457.223C890.646 456.967 885.942 454.243 880.945 451.17C874.116 446.969 871.708 446.054 871.252 447.49C869.876 451.811 860.727 459.409 855.007 460.98C836.518 466.057 820.278 456.913 816.864 439.503L816.002 435.107H856.204H896.406L895.803 422.317C894.684 398.569 885.332 381.537 868.448 372.491C859.235 367.555 841.048 365.71 829.343 368.524ZM960.08 368.927C953.587 371.393 944.546 377.486 943.586 380.041C942.033 384.165 940.812 381.777 941.462 375.894L942.139 369.768H927.952H913.764V426.94V484.111H927.778H941.792L941.813 445.657C941.834 408.389 941.928 407.036 944.817 401.833C949.015 394.274 955.254 390.915 965.14 390.888C974.663 390.863 980.117 394.097 984.003 402.07C986.234 406.652 986.546 411.322 986.912 445.657L987.322 484.111H1000.66H1014L1013.6 440.212C1013.21 397.673 1013.1 396.096 1010.1 389.345C1003.99 375.568 992.351 368.283 975.158 367.473C968.732 367.171 963.334 367.691 960.08 368.927ZM674.863 370.687C674.863 371.192 684.547 396.153 696.383 426.157C708.22 456.16 718.202 481.495 718.566 482.458C719.056 483.752 722.554 484.106 732.035 483.819L744.844 483.431L766.569 426.94C778.518 395.87 788.297 370.275 788.301 370.062C788.305 369.85 781.911 369.85 774.094 370.062L759.88 370.449L746.08 407.883C738.491 428.471 732.123 445.778 731.933 446.341C731.74 446.904 727.437 436.184 722.37 422.52C717.301 408.855 710.783 391.394 707.884 383.721L702.613 369.768H688.738C681.107 369.768 674.863 370.182 674.863 370.687ZM440.84 390.73C438.019 391.801 434.186 394.107 432.323 395.856C428.975 398.999 424.036 408.333 423.98 411.626C423.957 412.93 430.03 413.328 449.976 413.328C479.314 413.328 478.27 413.793 473.408 402.868C468.478 391.793 453.122 386.069 440.84 390.73ZM610.316 390.82C601.717 393.946 596.393 400.193 593.984 409.984L593.16 413.328H619.421H645.681L644.764 410.265C641.356 398.882 635.948 392.75 627.108 390.247C620.598 388.402 616.587 388.54 610.316 390.82ZM833.225 390.732C824.85 393.906 819.326 400.39 817.164 409.584L816.285 413.328H842.441H868.599L867.682 408.904C866.219 401.85 861.863 395.765 856.149 392.792C849.145 389.147 839.661 388.296 833.225 390.732ZM401.262 588.878V667.877L414.942 667.875L428.622 667.873V630.781C428.622 596.407 428.817 593.293 431.291 588.263C437.676 575.282 456.119 571.242 466.873 580.47C474.285 586.832 474.667 589.276 474.667 630.4V667.877H488.681H502.694L502.673 629.423C502.65 587.407 501.684 579.381 495.502 569.854C482.681 550.093 448.934 546.258 431.802 562.613L428.308 565.948L428.229 538.302L428.149 510.655L414.705 510.267L401.262 509.879V588.878ZM649.505 537.88V553.534H639.495H629.485V565.785V578.036H639.495H649.505V607.117C649.505 639.963 650.617 648.559 655.854 656.21C661.662 664.697 670.12 668.226 686.439 668.968C693.907 669.308 701.564 669.189 703.455 668.706C706.813 667.846 706.895 667.552 706.895 656.281V644.736H696.948C685.623 644.736 681.139 643.151 679.014 638.397C678.078 636.304 677.533 624.562 677.533 606.558V578.036H692.881H708.229V565.785V553.534H692.881H677.533V537.88V522.226H663.519H649.505V537.88ZM556.747 553.968C547.177 556.473 536.486 562.803 531.942 568.656C528.334 573.3 523.393 584.627 524.486 585.742C525.83 587.113 547.302 590.604 547.664 589.511C549.062 585.286 553.998 578.992 557.736 576.668C563.45 573.114 577.438 572.938 584.108 576.337C589.553 579.112 593.445 586.103 593.447 593.116L593.45 597.986L573.097 599.439C548.26 601.211 539.871 603.954 530.763 613.282C524.161 620.046 521.379 626.949 521.379 636.569C521.379 650.948 528.545 661.222 542.247 666.49C553.735 670.907 569.892 670.021 579.969 664.422C583.931 662.22 588.736 658.413 590.646 655.961L594.117 651.504L594.785 659.351L595.452 667.197L608.131 667.585L620.81 667.971L620.485 649.889C620.306 639.942 619.997 620.779 619.8 607.303C619.472 584.868 619.174 582.192 616.266 575.594C609.986 561.342 596.306 553.692 575.432 552.758C568.233 552.436 560.746 552.921 556.747 553.968ZM750.675 554.077C733.701 558.738 722.977 574.117 725.015 590.875C727.085 607.906 737.279 615.471 767.29 622.254C779.021 624.906 786.099 629.065 786.75 633.691C788.052 642.93 782.514 647.477 770.023 647.429C760.272 647.391 753.104 644.135 746.618 636.798L741.631 631.157L730.936 634.603C725.054 636.498 720.241 638.658 720.241 639.404C720.241 642.402 725.836 651.665 730.343 656.13C742.688 668.358 768.474 672.876 789.005 666.409C820.341 656.537 822.477 616.244 792.298 604.304C788.268 602.71 779.399 600.055 772.587 598.407C757.021 594.638 751.751 591.266 751.206 584.729C750.61 577.554 754.3 574.836 765.514 574.189C775.631 573.607 779.874 575.188 786.094 581.861L789.884 585.93L800.107 583.142C805.729 581.609 810.578 580.143 810.879 579.882C811.994 578.924 808.313 572.583 803.468 567.114C792.324 554.532 769.524 548.902 750.675 554.077ZM557.579 620.743C551.189 623.101 548.072 627.59 548.072 634.44C548.072 642.978 552.306 646.491 563.466 647.215C570.768 647.69 573.206 647.225 579.272 644.197C588.134 639.775 593.45 632.333 593.45 624.347V618.873L577.768 618.976C569.038 619.034 560.088 619.818 557.579 620.743ZM405.265 759.903V786.304H409.937H414.608V776.095V765.886H424.618H434.628V761.802V757.718H424.618H414.608V750.232V742.745H427.287H439.966V738.057V733.37L422.616 733.435L405.265 733.502V759.903ZM462.655 759.988V786.304H467.326H471.998V759.988V733.67H467.326H462.655V759.988ZM497.356 759.762V786.304H501.988H506.621L506.993 768.411L507.366 750.519L519.415 768.07C530.866 784.755 531.708 785.644 536.431 786.046L541.399 786.469V759.842V733.216H536.765H532.131L531.76 751.71L531.389 770.202L519.204 752.05C507.607 734.775 506.784 733.88 502.187 733.558L497.356 733.218V759.762ZM562.65 733.557C562.594 733.744 562.444 735.888 562.317 738.321L562.086 742.745L570.094 742.744L578.102 742.741L577.704 764.523L577.308 786.304H582.042H586.777V764.524V742.745H594.785H602.793V737.981V733.216H582.773C571.762 733.216 562.707 733.369 562.65 733.557ZM622.812 759.979V786.304H640.83H658.848V782.22V778.137H645.501H632.155V771.331V764.524H642.832H653.509V760.441V756.357H642.832H632.155V749.551V742.745H644.166H656.178V738.138V733.533L639.495 733.593L622.812 733.653V759.979ZM694.398 735.21C673.878 742.671 671.856 773.528 691.214 783.821C701.95 789.53 718.848 786.553 724.786 777.908C726.712 775.104 726.615 774.78 723.205 772.613C719.686 770.375 719.463 770.409 715.966 773.733C713.444 776.132 710.433 777.332 705.956 777.726C688.043 779.301 680.034 757.088 694.369 745.587C699.195 741.716 709.23 741.695 714.032 745.548C717.426 748.27 717.623 748.281 720.844 745.888C724.876 742.895 724.934 742.441 721.664 739.423C715.472 733.708 703.583 731.871 694.398 735.21ZM749.574 733.846C749.557 733.874 749.407 745.689 749.24 760.1L748.936 786.304H753.274H757.611V775.414V764.524H769.623H781.635V775.414V786.304H786.306H790.977V759.801V733.299L786.306 733.478L781.635 733.657V745.007V756.357H769.623H757.611V744.765V733.173L753.607 733.484C751.405 733.656 749.59 733.818 749.574 733.846Z" fill="white"/>
<path d="M143.675 268.614C179.128 269.836 217.426 265.51 235.098 258.288C243.256 254.953 244.332 255.192 244.845 260.453C245.25 264.579 245.282 264.594 255.522 265.494C271.604 266.908 288.395 270.367 292.977 273.209C300.72 278.012 297.602 287.246 285.87 294.259C271.83 302.65 243.093 310.508 207.796 315.605C181.993 319.332 134.264 319.578 106.973 316.125C59.9079 310.171 19.4922 297.193 12.0796 285.654C8.50546 280.09 10.1271 275.537 16.8844 272.167C22.8943 269.169 46.1998 264.954 56.7608 264.954C61.9833 264.954 62.2622 264.747 62.2622 260.87C62.2622 255.93 62.8735 255.876 77.5652 259.498C99.7456 264.966 120.37 267.811 143.675 268.614Z" fill="white"/>
<path d="M62.2622 327.396C62.2622 326.116 62.6266 324.102 63.0723 322.917C64.084 320.228 62.9055 320.147 80.2892 324.102C107.943 330.393 123.856 332.146 153.685 332.187C184.358 332.228 212.562 329.458 229.343 324.755C246.706 319.89 245.108 319.842 245.108 325.231V330.016L254.784 330.915C271.345 332.454 288.237 335.737 292.453 338.238C298.042 341.554 298.538 347.47 293.715 353.315C285.352 363.452 255.825 374.466 222.419 379.909C162.95 389.6 91.1879 385.492 45.6392 369.789C22.6967 361.88 10.2111 353.375 10.2111 345.657C10.2111 337.756 16.0048 335.359 43.0781 332.059C59.3874 330.072 62.2622 329.372 62.2622 327.396Z" fill="white"/>
<path d="M77.6733 391.447C127.835 402.453 203.112 401.59 235.118 389.641C243.408 386.547 245.108 386.853 245.108 391.439C245.108 395.357 245.242 395.427 254.117 396.263C270.213 397.779 286.568 400.893 291.585 403.395C304.34 409.754 294.826 422.894 270.258 432.852C210.69 456.996 104.589 457.403 40.601 433.734C27.9485 429.054 13.9215 420.576 11.6419 416.232C8.93657 411.077 9.92153 406.662 14.3939 403.887C18.9824 401.041 35.7709 397.586 51.9187 396.166C61.6496 395.31 62.2622 395.065 62.2622 392.041C62.2622 388.157 62.6172 388.143 77.6733 391.447Z" fill="white"/>
<path d="M81.6145 458.248C127.957 468.912 208.63 466.572 238.422 453.697C244.014 451.281 245.108 451.779 245.108 456.745V460.527L260.123 462.174C276.713 463.995 289.561 466.93 294.156 469.95C302.356 475.337 294.469 486.941 276.822 495.453C243.875 511.345 198.413 519.05 145.677 517.679C92.9003 516.306 45.0974 505.883 21.8639 490.681C10.3806 483.168 6.67834 474.281 13.2141 469.919C17.9214 466.777 30.81 463.824 47.2101 462.128C61.9312 460.606 62.2622 460.497 62.2622 457.198C62.2622 454.224 62.6973 453.922 65.9325 454.653C67.9504 455.11 75.008 456.728 81.6145 458.248Z" fill="white"/>
<path d="M77.1515 522.863C121.674 534.867 199.102 533.995 235.766 521.077C244.071 518.152 245.108 518.352 245.108 522.889C245.108 525.811 245.828 526.191 252.782 526.938C291.514 531.104 301.637 535.745 295.662 546.603C287.294 561.809 246.2 576.427 195.726 582.152C167.285 585.379 119.768 583.865 88.2877 578.729C44.7424 571.626 10.2111 555.347 10.2111 541.924C10.2111 537.948 10.9012 537.101 16.3158 534.428C22 531.622 36.4128 528.79 54.588 526.908C60.9155 526.254 62.2622 525.667 62.2622 523.569C62.2622 522.17 62.8067 520.682 63.4714 520.263C64.1374 519.844 70.2928 521.013 77.1515 522.863Z" fill="white"/>
<path d="M197.061 594.527C211.682 592.545 231.744 588.04 237.686 585.406C242.953 583.07 244.346 583.563 244.856 587.939C245.223 591.079 246.021 591.605 251.529 592.326C287.471 597.036 296.189 600.002 296.919 607.763C297.274 611.548 296.487 613.139 292.202 617.291C277.169 631.863 241.591 643.24 195.323 648.273C160.791 652.03 110.494 649.626 76.3107 642.584C51.4302 637.459 24.6426 626.308 15.0519 617.083C8.9806 611.242 8.41337 605.164 13.6158 601.687C18.526 598.406 32.7519 594.662 43.9309 593.708C60.2696 592.314 62.2622 591.797 62.2622 588.945C62.2622 587.525 62.7133 586.092 63.2632 585.76C63.8131 585.428 69.7229 586.57 76.3934 588.296C98.4951 594.017 117.861 596.015 152.351 596.135C171.229 596.2 189.588 595.54 197.061 594.527Z" fill="white"/>
<path d="M55.9227 657.601C61.5428 656.91 62.2622 656.444 62.2622 653.501C62.2622 649.43 61.9859 649.43 76.9873 653.524C100.558 659.958 116.196 661.622 153.685 661.69C191.62 661.757 208.957 660.118 227.758 654.683C246.304 649.322 245.108 649.42 245.108 653.267C245.108 657.008 247.732 658.264 255.785 658.377C261.145 658.453 277.766 661.364 286.219 663.706C297.892 666.942 300.206 673.959 292.477 682.685C281.069 695.563 247.995 707.573 207.071 713.699C186.929 716.714 128.85 717.125 107.64 714.403C53.4549 707.448 8.98594 688.43 10.4701 672.847C10.8091 669.287 11.9008 668.041 16.8844 665.515C22.1869 662.828 35.6548 660.098 55.9227 657.601Z" fill="white"/>
<path d="M46.9138 724.696C60.4684 723.085 61.6283 722.718 62.022 719.916C62.5358 716.257 62.2275 716.265 72.6858 719.609C85.3569 723.66 108.956 727.47 127.66 728.483C136.835 728.981 147.045 729.593 150.349 729.843C168.729 731.236 217.9 725.228 233.64 719.668C243.719 716.106 245.108 716.161 245.108 720.127C245.108 723.134 245.765 723.437 254.117 724.28C270.46 725.93 285.875 729.27 291.224 732.322C295.622 734.829 296.559 736.126 296.894 740.175C297.231 744.261 296.503 745.808 292.253 750.018C285.257 756.948 268.479 764.963 248.943 770.707C178.432 791.439 80.6095 786.143 28.5772 758.779C16.1143 752.224 10.2111 745.972 10.2111 739.329C10.2111 735.593 10.9559 734.255 13.8988 732.702C20.4278 729.259 31.8724 726.484 46.9138 724.696Z" fill="white"/>
<path d="M201.247 792.509C216.207 790.459 237.193 785.787 240.871 783.688C243.617 782.12 245.108 783.026 245.108 786.265C245.108 788.935 246.767 789.379 263.126 791.083C274.779 792.298 291.119 797.006 294.357 800.082C302.011 807.354 294.18 818.237 274.145 828.177C256.774 836.795 236.94 842.219 204.813 847.139C183.615 850.385 125.628 850.358 102.451 847.091C70.2674 842.553 49.6872 836.636 29.9719 826.249C16.2224 819.008 10.2111 812.855 10.2111 806.026C10.2111 800.469 12.7603 798.415 23.5576 795.268C29.8357 793.437 55.5142 789.127 60.5939 789.051C61.5121 789.037 62.2622 787.801 62.2622 786.304C62.2622 782.953 62.7106 782.95 75.3857 786.224C112.478 795.804 159.902 798.171 201.247 792.509Z" fill="white"/>
<path d="M152.351 861.764C191.069 861.76 217.225 858.636 236.433 851.717C243.776 849.073 245.108 849.251 245.108 852.883C245.108 854.952 246.704 855.449 255.613 856.15C275.509 857.714 294.381 863.538 296.328 868.712C298.294 873.94 297.071 878.013 292.084 882.853C279.405 895.153 248.448 906.384 210.408 912.48C188.729 915.954 120.732 915.979 98.2976 912.52C56.9784 906.151 20.4572 892.19 12.4333 879.701C9.21549 874.691 10.0056 868.215 14.2151 865.087C18.8663 861.632 31.0462 858.611 47.9148 856.733C60.2042 855.365 62.2622 854.788 62.2622 852.709C62.2622 851.374 62.4264 850.282 62.6266 850.282C62.8268 850.282 68.6832 851.744 75.6393 853.531C100.402 859.894 117.849 861.767 152.351 861.764Z" fill="white"/>
<path fill-rule="evenodd" clip-rule="evenodd" d="M114.313 109.821C100.657 111.723 85.9641 115.311 81.8561 117.75C79.7861 118.978 76.9753 121.824 75.6073 124.076C71.8343 130.29 67.7556 152.585 64.2468 186.172L63.446 193.829L49.842 194.778C30.3442 196.138 18.5206 199.097 13.9441 203.765C2.68642 215.247 18.3645 230.143 54.7081 242.495C112.407 262.105 194.6 261.998 255.118 242.235C287.607 231.625 302.262 218.688 295.781 206.336C292.497 200.08 278.711 196.126 254.969 194.63L241.471 193.779L240.613 181.382C239.565 166.241 236.433 145.879 233.494 135.11C229.801 121.577 223.725 117.4 199.063 111.452C189.487 109.142 127.728 107.954 114.313 109.821ZM75.9423 215.647C75.0227 214.879 74.274 211.276 74.274 207.616C74.274 200.347 74.4288 200.253 82.9492 202.362C116.359 210.63 180.728 211.239 216.897 203.632C223.767 202.186 229.924 201.339 230.577 201.75C232.471 202.944 231.959 214.089 229.931 215.805C227.22 218.099 206.457 222.35 189.822 224.017C171.2 225.884 134.613 225.894 116.79 224.039C101.183 222.415 78.4581 217.746 75.9423 215.647Z" fill="white"/>
</svg>
